<svg width="1682" height="311" viewBox="0 0 1682 311" fill="none" xmlns="http://www.w3.org/2000/svg">
<path d="M0 305.945V4.12645H217.521V70.1492H81.9389V122.024H206.321V188.047H81.9389V239.922H216.932V305.945H0ZM594.003 4.12645V305.945H525.622L416.567 147.372H414.798V305.945H332.859V4.12645H402.419L509.706 162.109H512.064V4.12645H594.003ZM699.209 70.1492V4.12645H961.531V70.1492H870.75V305.945H789.99V70.1492H699.209ZM1067.07 305.945V4.12645H1284.59V70.1492H1149.01V122.024H1273.39V188.047H1149.01V239.922H1284V305.945H1067.07ZM1681.7 117.308H1598.59C1598 110.431 1596.42 104.192 1593.87 98.592C1591.41 92.9919 1587.97 88.1777 1583.55 84.1495C1579.23 80.0231 1573.97 76.8792 1567.78 74.7177C1561.6 72.458 1554.57 71.3282 1546.71 71.3282C1532.96 71.3282 1521.31 74.6686 1511.78 81.3495C1502.35 88.0303 1495.18 97.6095 1490.27 110.087C1485.45 122.565 1483.05 137.547 1483.05 155.036C1483.05 173.506 1485.5 188.98 1490.41 201.458C1495.43 213.837 1502.65 223.171 1512.08 229.458C1521.51 235.648 1532.86 238.743 1546.12 238.743C1553.69 238.743 1560.47 237.81 1566.46 235.943C1572.45 233.978 1577.66 231.178 1582.08 227.543C1586.5 223.907 1590.09 219.535 1592.84 214.427C1595.69 209.219 1597.6 203.374 1598.59 196.889L1681.7 197.479C1680.72 210.251 1677.14 223.269 1670.95 236.532C1664.76 249.698 1655.96 261.88 1644.57 273.081C1633.27 284.183 1619.27 293.123 1602.56 299.902C1585.86 306.682 1566.46 310.071 1544.35 310.071C1516.65 310.071 1491.79 304.127 1469.78 292.239C1447.87 280.351 1430.53 262.863 1417.76 239.775C1405.09 216.686 1398.75 188.44 1398.75 155.036C1398.75 121.435 1405.23 93.1392 1418.2 70.1492C1431.17 47.0609 1448.66 29.6218 1470.67 17.8321C1492.67 5.94404 1517.24 2.7597e-05 1544.35 2.7597e-05C1563.41 2.7597e-05 1580.95 2.6036 1596.96 7.81074C1612.98 13.0179 1627.03 20.6321 1639.11 30.6534C1651.2 40.5765 1660.92 52.8084 1668.29 67.3491C1675.66 81.8898 1680.13 98.5429 1681.7 117.308Z" fill="black" fill-opacity="0.01"/>
</svg>
